<svg width="70" height="70" viewBox="0 0 70 70" fill="none" xmlns="http://www.w3.org/2000/svg">
<path d="M67.5862 64.569H2.41377C1.08063 64.569 0 63.4884 0 62.1552V7.8448C0 6.51166 1.08063 5.43103 2.41377 5.43103H67.5862C68.9194 5.43103 70 6.51166 70 7.8448V62.1551C70 63.4884 68.9194 64.569 67.5862 64.569Z" fill="#E4EAF8"/>
<path d="M67.5862 64.5689H35V11.4655H70V62.1552C70 63.4883 68.9194 64.5689 67.5862 64.5689Z" fill="#5B5D6E"/>
<path d="M70 11.4655H0V7.8448C0 6.51166 1.08063 5.43103 2.41377 5.43103H67.5862C68.9194 5.43103 70 6.51166 70 7.8448V11.4655Z" fill="#D5DCED"/>
<path d="M3.62069 10.2586H2.41374C1.74724 10.2586 1.20679 9.71811 1.20679 9.0516V7.84465C1.20679 7.17814 1.74724 6.6377 2.41374 6.6377H3.62069C4.2872 6.6377 4.82765 7.17814 4.82765 7.84465V9.0516C4.82751 9.71824 4.2872 10.2586 3.62069 10.2586Z" fill="#E4EAF8"/>
<path d="M57.931 10.2586H56.724C56.0575 10.2586 55.5171 9.71811 55.5171 9.0516V7.84465C55.5171 7.17814 56.0575 6.6377 56.724 6.6377H57.931C58.5975 6.6377 59.1379 7.17814 59.1379 7.84465V9.0516C59.1379 9.71824 58.5975 10.2586 57.931 10.2586Z" fill="#FF5050"/>
<path d="M62.7586 10.2586H61.5516C60.8851 10.2586 60.3447 9.71811 60.3447 9.0516V7.84465C60.3447 7.17814 60.8851 6.6377 61.5516 6.6377H62.7586C63.4251 6.6377 63.9655 7.17814 63.9655 7.84465V9.0516C63.9655 9.71824 63.4252 10.2586 62.7586 10.2586Z" fill="#FFF082"/>
<path d="M67.5863 10.2586H66.3793C65.7128 10.2586 65.1724 9.71811 65.1724 9.0516V7.84465C65.1724 7.17814 65.7128 6.6377 66.3793 6.6377H67.5863C68.2528 6.6377 68.7932 7.17814 68.7932 7.84465V9.0516C68.7931 9.71824 68.2528 10.2586 67.5863 10.2586Z" fill="#A0FFB4"/>
<path d="M19.8103 20.6208L11.6414 28.7897C11.1999 29.2312 11.1679 29.9363 11.5675 30.4157L35 58.5345V19.9138H21.5171C20.877 19.9138 20.263 20.1683 19.8103 20.6208Z" fill="#00C3FF"/>
<path d="M35 19.9138L24.1379 29.569H35V19.9138Z" fill="#80E1FF"/>
<path d="M24.138 29.569L20.5874 20.1007C20.2999 20.2207 20.0352 20.3959 19.8107 20.6204L11.6416 28.7896C11.4259 29.0053 11.3114 29.2844 11.2939 29.5689L24.138 29.569Z" fill="#00AAF0"/>
<path d="M24.138 29.569L35 58.5345V29.569H24.138Z" fill="#00AAF0"/>
<path d="M35 66.9827C34.3329 66.9827 33.793 66.4423 33.793 65.7758V4.22416C33.793 3.55766 34.3328 3.01721 35 3.01721C35.667 3.01721 36.2069 3.55766 36.2069 4.22416V65.7759C36.2069 66.4423 35.667 66.9827 35 66.9827Z" fill="#AFB9D2"/>
<path d="M43.4482 22.3275H41.0345C40.3674 22.3275 39.8275 21.787 39.8275 21.1205C39.8275 20.454 40.3673 19.9136 41.0345 19.9136H43.4482C44.1153 19.9136 44.6552 20.454 44.6552 21.1205C44.6552 21.787 44.1154 22.3275 43.4482 22.3275Z" fill="#FF5050"/>
<path d="M43.4482 31.9828H41.0345C40.3674 31.9828 39.8275 31.4423 39.8275 30.7758C39.8275 30.1093 40.3673 29.5688 41.0345 29.5688H43.4482C44.1153 29.5688 44.6552 30.1093 44.6552 30.7758C44.6552 31.4423 44.1154 31.9828 43.4482 31.9828Z" fill="#FF5050"/>
<path d="M47.069 27.1552H44.6552C43.9881 27.1552 43.4482 26.6148 43.4482 25.9483C43.4482 25.2818 43.988 24.7413 44.6552 24.7413H47.069C47.736 24.7413 48.2759 25.2818 48.2759 25.9483C48.2759 26.6148 47.736 27.1552 47.069 27.1552Z" fill="#A0FFB4"/>
<path d="M63.9655 22.3275H48.2758C47.6088 22.3275 47.0688 21.787 47.0688 21.1205C47.0688 20.454 47.6086 19.9136 48.2758 19.9136H63.9655C64.6326 19.9136 65.1725 20.454 65.1725 21.1205C65.1725 21.787 64.6327 22.3275 63.9655 22.3275Z" fill="white"/>
<path d="M63.9655 31.9828H48.2758C47.6088 31.9828 47.0688 31.4423 47.0688 30.7758C47.0688 30.1093 47.6086 29.5688 48.2758 29.5688H63.9655C64.6326 29.5688 65.1725 30.1093 65.1725 30.7758C65.1725 31.4423 64.6327 31.9828 63.9655 31.9828Z" fill="#FFF082"/>
<path d="M63.9655 27.1552H51.8965C51.2295 27.1552 50.6896 26.6148 50.6896 25.9483C50.6896 25.2818 51.2293 24.7413 51.8965 24.7413H63.9655C64.6326 24.7413 65.1725 25.2818 65.1725 25.9483C65.1725 26.6148 64.6327 27.1552 63.9655 27.1552Z" fill="#D5DCED"/>
<path d="M47.069 36.8103H44.6552C43.9881 36.8103 43.4482 36.2698 43.4482 35.6033C43.4482 34.9368 43.988 34.3964 44.6552 34.3964H47.069C47.736 34.3964 48.2759 34.9368 48.2759 35.6033C48.2759 36.2698 47.736 36.8103 47.069 36.8103Z" fill="#A0FFB4"/>
<path d="M63.9655 36.8103H51.8965C51.2295 36.8103 50.6896 36.2698 50.6896 35.6033C50.6896 34.9368 51.2293 34.3964 51.8965 34.3964H63.9655C64.6326 34.3964 65.1725 34.9368 65.1725 35.6033C65.1725 36.2698 64.6327 36.8103 63.9655 36.8103Z" fill="#D5DCED"/>
<path d="M43.4482 41.638H41.0345C40.3674 41.638 39.8275 41.0976 39.8275 40.4311C39.8275 39.7646 40.3673 39.2241 41.0345 39.2241H43.4482C44.1153 39.2241 44.6552 39.7646 44.6552 40.4311C44.6552 41.0976 44.1154 41.638 43.4482 41.638Z" fill="#FF5050"/>
<path d="M43.4482 51.2931H41.0345C40.3674 51.2931 39.8275 50.7526 39.8275 50.0861C39.8275 49.4196 40.3673 48.8792 41.0345 48.8792H43.4482C44.1153 48.8792 44.6552 49.4196 44.6552 50.0861C44.6552 50.7526 44.1154 51.2931 43.4482 51.2931Z" fill="#FF5050"/>
<path d="M47.069 46.4655H44.6552C43.9881 46.4655 43.4482 45.9251 43.4482 45.2586C43.4482 44.5921 43.988 44.0516 44.6552 44.0516H47.069C47.736 44.0516 48.2759 44.5921 48.2759 45.2586C48.2759 45.9251 47.736 46.4655 47.069 46.4655Z" fill="#A0FFB4"/>
<path d="M63.9655 41.638H48.2758C47.6088 41.638 47.0688 41.0976 47.0688 40.4311C47.0688 39.7646 47.6086 39.2241 48.2758 39.2241H63.9655C64.6326 39.2241 65.1725 39.7646 65.1725 40.4311C65.1725 41.0976 64.6327 41.638 63.9655 41.638Z" fill="white"/>
<path d="M63.9655 51.2931H48.2758C47.6088 51.2931 47.0688 50.7526 47.0688 50.0861C47.0688 49.4196 47.6086 48.8792 48.2758 48.8792H63.9655C64.6326 48.8792 65.1725 49.4196 65.1725 50.0861C65.1725 50.7526 64.6327 51.2931 63.9655 51.2931Z" fill="#FFF082"/>
<path d="M63.9655 46.4655H51.8965C51.2295 46.4655 50.6896 45.9251 50.6896 45.2586C50.6896 44.5921 51.2293 44.0516 51.8965 44.0516H63.9655C64.6326 44.0516 65.1725 44.5921 65.1725 45.2586C65.1725 45.9251 64.6327 46.4655 63.9655 46.4655Z" fill="#D5DCED"/>
<path d="M47.069 56.1207H44.6552C43.9881 56.1207 43.4482 55.5802 43.4482 54.9137C43.4482 54.2472 43.988 53.7068 44.6552 53.7068H47.069C47.736 53.7068 48.2759 54.2472 48.2759 54.9137C48.2759 55.5802 47.736 56.1207 47.069 56.1207Z" fill="#A0FFB4"/>
<path d="M63.9655 56.1207H51.8965C51.2295 56.1207 50.6896 55.5802 50.6896 54.9137C50.6896 54.2472 51.2293 53.7068 51.8965 53.7068H63.9655C64.6326 53.7068 65.1725 54.2472 65.1725 54.9137C65.1725 55.5802 64.6327 56.1207 63.9655 56.1207Z" fill="#D5DCED"/>
</svg>
