<svg width="80" height="80" viewBox="0 0 80 80" fill="none" xmlns="http://www.w3.org/2000/svg">
<g clip-path="url(#clip0_50_151)">
<path d="M35.2729 2.75874V66.2082L38.9352 79.6367C39.0673 80.1213 39.7544 80.1213 39.8866 79.6367L43.549 66.2082V2.75874C43.549 1.235 42.314 0 40.7902 0H38.0315C36.508 0 35.2729 1.235 35.2729 2.75874Z" fill="#FAEBC8"/>
<path d="M43.5491 6.89673H35.2731V66.2082H43.5491V6.89673Z" fill="#FFDC64"/>
<path d="M39.4108 22.0694V6.89673H35.2729V66.2082H39.4108V29.8364C39.4108 28.9993 40.156 28.3261 40.9818 28.4643C41.8857 28.6156 42.7466 28.8939 43.549 29.2758V22.0697H39.4108V22.0694Z" fill="#FFC850"/>
<path d="M63.8349 42.3568C64.3447 39.5155 64.3699 36.5691 63.8435 33.6369L67.4033 31.3607C67.9666 31.0005 68.1904 30.2885 67.9346 29.6709L65.6147 24.0702C65.3758 23.4934 64.7793 23.149 64.1602 23.2306L59.7726 23.8088C58.0713 21.3632 55.9701 19.2978 53.6005 17.6489L54.6137 13.9984C54.8001 13.3268 54.4563 12.6218 53.8124 12.3553L48.1952 10.0287C47.6552 9.80512 47.0327 9.94605 46.642 10.3806L43.7677 13.5762C40.9265 13.0665 37.9799 13.0412 35.0478 13.5676L33.3607 10.6693C33.0206 10.0848 32.3067 9.83324 31.6751 10.0751L25.5368 12.4265C24.9329 12.6579 24.5708 13.2779 24.6659 13.9176L25.2195 17.6385C22.774 19.3398 20.7084 21.441 19.0597 23.8106L15.9397 23.2776C15.3048 23.1692 14.6797 23.5145 14.4331 24.1093L12.0648 29.827C11.8392 30.372 11.9848 31.0002 12.4276 31.3901L14.9867 33.6432C14.4769 36.4846 14.4519 39.431 14.9781 42.3632L12.4273 44.6099C11.9847 44.9997 11.8391 45.6279 12.0647 46.1729L14.433 51.8905C14.6794 52.4855 15.3047 52.8307 15.9395 52.7222L19.0489 52.191C20.7501 54.6366 22.8514 56.7021 25.2209 58.3508L25.1429 62.2356C25.1315 62.8036 25.4693 63.3203 25.9942 63.5377L31.6568 65.8833C32.2945 66.1475 33.0292 65.8995 33.3765 65.3031L35.0539 62.4238L35.2726 62.4239V49.6885C30.3368 47.9408 26.8287 43.1733 27.0028 37.5991C27.2045 31.1419 32.5904 25.771 39.0482 25.587C46.0699 25.387 51.8246 31.0193 51.8246 37.9958C51.8246 43.3985 48.367 47.9824 43.5485 49.6883V62.4319L43.7737 62.432L46.6413 65.6192C47.0323 66.0538 47.6546 66.1945 48.1946 65.9709L53.8118 63.6442C54.4557 63.3775 54.7996 62.6724 54.613 62.0008L53.6019 58.3613C56.0474 56.66 58.1132 54.5588 59.7619 52.1893L64.1604 52.7691C64.7793 52.8507 65.3761 52.5063 65.615 51.9294L67.9349 46.3288C68.1908 45.7111 67.9669 44.9991 67.4036 44.639L63.8349 42.3568Z" fill="#AFB9D2"/>
<path d="M55.9774 31.1379C51.9329 21.3736 40.2582 17.0812 30.7248 22.309C23.5649 26.235 19.942 34.7738 22.0899 42.6518C23.5557 48.0273 27.2007 52.0187 31.7062 54.1605C32.1931 54.3921 32.5143 54.8666 32.5143 55.4058V65.9332C32.8654 65.846 33.1831 65.6366 33.377 65.3036L35.0543 62.4243L35.273 62.4244L35.2677 49.7024C31.5218 48.3748 28.4271 45.2651 27.3442 40.9368C26.0709 35.8479 28.2521 30.3612 32.6856 27.5571C39.8696 23.0132 49.1754 26.6859 51.399 34.7628C52.7024 39.497 51.0196 44.7065 47.1471 47.7257C46.0136 48.6094 44.7954 49.2627 43.5491 49.7043L43.549 62.4322L43.7741 62.4324L46.3076 65.2483V55.4363C46.3076 54.8963 46.6311 54.4201 47.119 54.1883C55.6858 50.1182 59.6482 40.0002 55.9774 31.1379Z" fill="#959CB5"/>
<path d="M35.2729 66.208L38.9352 79.6366C39.0013 79.8788 39.2062 79.9999 39.4108 79.9999V66.208H35.2729Z" fill="#F5DCB4"/>
<path d="M37.1538 73.1047L38.9352 79.6366C39.0672 80.1211 39.7544 80.1211 39.8866 79.6366L41.668 73.1047H37.1538Z" fill="#5B5D6E"/>
<path d="M37.1538 73.1047L38.9352 79.6366C39.0013 79.8788 39.2061 79.9999 39.4108 79.9999V73.1047H37.1538Z" fill="#464655"/>
<path d="M39.4108 6.89671H35.2729V2.75874C35.2729 1.235 36.5079 0 38.0316 0H39.411V6.89671H39.4108Z" fill="#F5DCB4"/>
</g>
<defs>
<clipPath id="clip0_50_151">
<rect width="80" height="80" fill="white"/>
</clipPath>
</defs>
</svg>
