<svg width="72" height="54" viewBox="0 0 72 54" fill="none" xmlns="http://www.w3.org/2000/svg">
<path d="M6.14062 53.7969C3.18608 53.7969 0.78125 51.392 0.78125 48.4375V4.79688C0.78125 1.84233 2.42045 0.203125 5.375 0.203125H65.8594C68.8139 0.203125 71.2188 2.60795 71.2188 5.5625V48.4375C71.2188 51.392 68.8139 53.7969 65.8594 53.7969H6.14062Z" fill="#CCCCCC"/>
<path d="M5.33899 6.32812C6.18468 6.32812 6.87024 5.64256 6.87024 4.79688C6.87024 3.95119 6.18468 3.26562 5.33899 3.26562C4.4933 3.26562 3.80774 3.95119 3.80774 4.79688C3.80774 5.64256 4.4933 6.32812 5.33899 6.32812Z" fill="#CC584C"/>
<path d="M9.93274 6.32812C10.7784 6.32812 11.464 5.64256 11.464 4.79688C11.464 3.95119 10.7784 3.26562 9.93274 3.26562C9.08705 3.26562 8.40149 3.95119 8.40149 4.79688C8.40149 5.64256 9.08705 6.32812 9.93274 6.32812Z" fill="#FFD464"/>
<path d="M14.5265 6.32812C15.3722 6.32812 16.0577 5.64256 16.0577 4.79688C16.0577 3.95119 15.3722 3.26562 14.5265 3.26562C13.6808 3.26562 12.9952 3.95119 12.9952 4.79688C12.9952 5.64256 13.6808 6.32812 14.5265 6.32812Z" fill="#198058"/>
<path d="M64.2921 5.5625C64.2921 5.98359 63.9476 6.32812 63.5265 6.32812H19.1202C18.6991 6.32812 18.3546 5.98359 18.3546 5.5625V4.03125C18.3546 3.61016 18.6991 3.26562 19.1202 3.26562H63.5265C63.9476 3.26562 64.2921 3.61016 64.2921 4.03125V5.5625Z" fill="#F5F5F5"/>
<path d="M68.1562 49.2031C68.1562 50.0453 67.4672 50.7344 66.625 50.7344H5.375C4.53281 50.7344 3.84375 50.0453 3.84375 49.2031V10.9219C3.84375 10.0797 4.53281 9.39062 5.375 9.39062H66.625C67.4672 9.39062 68.1562 10.0797 68.1562 10.9219V49.2031Z" fill="#F5F5F5"/>
<path d="M17.625 46.1406C17.625 46.9828 16.9359 47.6719 16.0938 47.6719H8.4375C7.59531 47.6719 6.90625 46.9828 6.90625 46.1406V13.9844C6.90625 13.1422 7.59531 12.4531 8.4375 12.4531H16.0938C16.9359 12.4531 17.625 13.1422 17.625 13.9844V46.1406Z" fill="#406A80"/>
<path d="M63.5625 12.4531C64.4047 12.4531 65.0938 13.1422 65.0938 13.9844V21.6406C65.0938 22.4843 64.4047 23.1719 63.5625 23.1719H22.2188C21.3766 23.1719 20.6875 22.4843 20.6875 21.6406V13.9844C20.6875 13.1422 21.3766 12.4531 22.2188 12.4531H63.5625Z" fill="#406A80"/>
<path d="M65.0938 25.4688H20.6875V27H65.0938V25.4688Z" fill="#B3B3B3"/>
<path d="M65.0938 27.7656H20.6875V29.2969H65.0938V27.7656Z" fill="#B3B3B3"/>
<path d="M65.0938 30.0625H20.6875V31.5938H65.0938V30.0625Z" fill="#B3B3B3"/>
<path d="M30.6406 32.3594H20.6875V42.3125H30.6406V32.3594Z" fill="#B3B3B3"/>
<path d="M42.125 32.3594H32.1719V42.3125H42.125V32.3594Z" fill="#E16B5A"/>
</svg>
